HIERARCHY
ROOT Hips
{
  OFFSET 0.0 0.0 0.0
  CHANNELS 6 XPOSITION YPOSITION ZPOSITION ZROTATION XROTATION YROTATION 
  JOINT LeftUpLeg
  {
    OFFSET 0.089458 -0.0866707 0.00101652
    CHANNELS 3 ZROTATION XROTATION YROTATION 
    JOINT LeftLeg
    {
      OFFSET 0.0 -0.444227 0.013727
      CHANNELS 3 ZROTATION XROTATION YROTATION 
      JOINT LeftFoot
      {
        OFFSET -0.00253549 -0.420924 -0.0146059
        CHANNELS 3 ZROTATION XROTATION YROTATION 
        End Site
        {
          OFFSET -0.0004 -0.0441509 0.084991
        }
      }
    }
  }
  JOINT Spine
  {
    OFFSET 0.0 0.118905 0.0
    CHANNELS 3 ZROTATION XROTATION YROTATION 
    JOINT Spine1
    {
      OFFSET 0.0 0.256574 0.00127663
      CHANNELS 3 ZROTATION XROTATION YROTATION 
      End Site
      {
        OFFSET -0.0029 0.2150836 0.02525291
      }
      JOINT RightArm
      {
        OFFSET -0.162727 -0.05365632 0.00102123
        CHANNELS 3 ZROTATION XROTATION YROTATION 
        JOINT RightForeArm
        {
          OFFSET -0.26364 0.00099144 -0.0142434
          CHANNELS 3 ZROTATION XROTATION YROTATION 
          End Site
          {
            OFFSET -0.220324 0.00085362 0.0102216
          }
        }
      }
      JOINT LeftArm
      {
        OFFSET 0.162727 -0.0536563199 0.00102123
        CHANNELS 3 ZROTATION XROTATION YROTATION 
        JOINT LeftForeArm
        {
          OFFSET 0.262597 0.00099144 -0.0142434
          CHANNELS 3 ZROTATION XROTATION YROTATION 
          End Site
          {
            OFFSET 0.220902 0.00085362 0.0102216
          }
        }
      }
    }
  }
  JOINT RightUpLeg
  {
    OFFSET -0.089458 -0.0866707 0.00101652
    CHANNELS 3 ZROTATION XROTATION YROTATION 
    JOINT RightLeg
    {
      OFFSET 0.0 -0.444227 0.013727
      CHANNELS 3 ZROTATION XROTATION YROTATION 
      JOINT RightFoot
      {
        OFFSET 0.00253549 -0.420924 -0.0146059
        CHANNELS 3 ZROTATION XROTATION YROTATION 
        End Site
        {
          OFFSET 0.0004 -0.0441509 0.084991
        }
      }
    }
  }
}
MOTION
Frames: 11
Frame Time: 0.033333
1.95770086065 0.984911298724 0.0391739463819 -4.11382507153 -0.492627073722 -91.3518950167 -0.982472019296 2.24875995639 1.85311996806 0.344178008073 9.18191038616 17.1548994873 -3.2276718463 -34.1097017528 -0.0624532820891 0.45458697547 8.74931010979 -0.0634835000656 -0.0708578031824 -3.13563995644 0.0566493021615 78.7370683745 -20.2261299061 6.31072084023 8.2039801225 41.0901994807 6.84979992378 -72.9281564099 -9.83647217376 0.876585144058 -4.09030019248 36.1186004065 -14.7956001763 -0.556324991035 3.08775990347 -4.05542012394 -0.258608997945 10.5633998156 -8.23215977547 3.12996855155 -36.4995029811 -0.0564163086675 
1.95783180981 0.980809484768 0.0389913604422 -4.12291818775 -0.504597193686 -91.3564234321 -0.983531125504 2.25007711568 1.85312060839 0.344338090632 9.1815560701 17.1630957143 -3.23019922974 -34.1146741305 -0.0624803427117 0.464102602922 8.75526005833 -0.0602575163432 -0.0868148993319 -3.15080511083 0.0627892286787 78.734561695 -20.223146821 6.29586005615 8.2010320421 41.0763888382 6.8577882569 -72.9247959568 -9.83430529624 0.882042678648 -4.08783534797 36.132916483 -14.795805082 -0.556428884615 3.08809821127 -4.05542097771 -0.258738878261 10.5633929854 -8.23213757735 3.12568922459 -36.499499566 -0.0564424621555 
1.95810854929 0.98066650917 0.0386620925664 -4.14127944379 -0.52808989614 -91.3663818479 -0.988785568688 2.25038874306 1.85199896326 0.343881108288 9.18677262708 17.1779513758 -3.23758031636 -34.1264459615 -0.0625838694364 0.498498208283 8.77835890433 -0.0536866709234 -0.156372378571 -3.21127256211 0.0815450948923 78.7233192037 -20.1701991946 6.23273630161 8.18185201713 40.996909342 6.91281311463 -72.9086903708 -9.85373291556 0.901727230475 -4.08330693255 36.2037455447 -14.7856537133 -0.558564652752 3.08866362287 -4.05544146828 -0.261008155252 10.5633588345 -8.23221527075 3.10178441627 -36.4994859056 -0.0566091881403 
1.95848070829 0.980647867939 0.038232348116 -4.15480108391 -0.565326753474 -91.3736559994 -1.00018056538 2.23501185281 1.84531519627 0.341208316527 9.20074036393 17.1771112625 -3.2410664876 -34.1287853013 -0.0627077199759 0.529887036305 8.79681834434 -0.0536050221484 -0.239484094743 -3.27893070848 0.0952457206556 78.7261878831 -20.1130066056 6.18070861627 8.15835872771 40.9750527366 6.96287541304 -72.893786898 -9.92711219914 0.924050850004 -4.08206042302 36.3081620617 -14.7606005795 -0.566795350867 3.07726574469 -4.05550720885 -0.267596779841 10.5632922401 -8.23117622822 3.06544759644 -36.4994756603 -0.0570665706909 
1.95892506339 0.9806430758 0.0376630180916 -4.15262865687 -0.615222192495 -91.3773852827 -1.01443837183 2.19721806825 1.83295490175 0.336275799369 9.21463382247 17.1649159598 -3.22724325193 -34.1153366588 -0.0626846814277 0.525615713474 8.78721851346 -0.0608651563854 -0.252273063675 -3.29193752309 0.0887614899052 78.7780290189 -20.2035151498 6.23961088701 8.17052841726 41.223801396 6.87747499652 -72.9101725218 -10.0091111814 0.93404405709 -4.07648058536 36.3608467258 -14.7489687673 -0.580903266681 3.04444711262 -4.05584530322 -0.274268860804 10.5633964005 -8.22499746835 3.05351290808 -36.5006436227 -0.057650558535 
1.9594013933 0.980621215431 0.0370217682114 -4.14761657868 -0.66000502148 -91.3776789808 -1.02276928163 2.15729561255 1.82678531994 0.329413326883 9.22377346936 17.1649927994 -3.13318962607 -34.1591728129 -0.0550326117262 0.512552389717 8.76933195557 -0.065758566709 -0.207006011631 -3.25802883551 0.075542119004 78.8637888741 -20.4246647223 6.37973093717 8.22645229864 41.6376630484 6.67013179766 -72.9533598079 -10.0248504986 0.927834774804 -4.05560838103 36.3415480263 -14.7734925615 -0.592061394546 3.00976106414 -4.05805956517 -0.273834476781 10.5643850704 -8.22207243983 3.16184461752 -36.5225685299 -0.0416253639321 
1.95978203114 0.98056435971 0.0364392649444 -4.15340473711 -0.689879788662 -91.3675703009 -1.02201486589 2.13692713468 1.83069667046 0.322351364848 9.23093748402 17.1728492245 -3.00335690802 -34.2450146304 -0.0427175872196 0.522086906912 8.74460496323 -0.0712767792591 -0.175734470764 -3.18413109789 0.0657692722301 78.9398088796 -20.6054325089 6.5143219492 8.29408739312 41.934984598 6.47681780736 -72.9861310556 -10.0066830492 0.889131401151 -4.03229737228 36.2872241168 -14.8106897717 -0.596508274582 2.99323798276 -4.06717231818 -0.264232164623 10.5719537738 -8.2339501388 3.3134438678 -36.5562174569 -0.0163374189584 
1.96000639102 0.980523846134 0.0359701736523 -4.16455374027 -0.717744239072 -91.3485755448 -1.02579377477 2.13123033002 1.82636462297 0.322094645785 9.2370872156 17.1750826963 -2.93983316053 -34.2907222563 -0.0357874531721 0.542246050165 8.68505083631 -0.0897137476755 -0.199863901595 -3.05965943801 0.0531363437723 78.9933507325 -20.6578900692 6.61875810293 8.35048085 42.0203653778 6.3682583538 -72.9775250172 -10.0518357223 0.815825008501 -4.02149670877 36.2169551306 -14.8318496978 -0.606997150631 2.98296324382 -4.08875614284 -0.24800523598 10.5972946294 -8.24348593666 3.36423934432 -36.5721557033 -0.00449057923997 
1.96019036222 0.98050882782 0.0356270517528 -4.17089130205 -0.752272072626 -91.3335081475 -1.04686992428 2.12110948378 1.8021276967 0.331780254234 9.24450138594 17.1752927247 -2.93646673104 -34.2903978223 -0.0325651046578 0.555650723298 8.62512190276 -0.118889554386 -0.274618587833 -2.95345960136 0.0374454482426 79.0391198301 -20.6200952175 6.68902068581 8.40390061328 41.9601914112 6.31450860702 -72.9257180324 -10.1483531254 0.759742325226 -4.00414632073 36.1274215959 -14.8593599922 -0.632937568768 2.96221419633 -4.11837184309 -0.232465488401 10.6325964621 -8.23034721401 3.34863172174 -36.5672891935 -0.00371007004473 
1.96052477468 0.980508882521 0.0354260875947 -4.18097308815 -0.783583847576 -91.3269375055 -1.07221547563 2.10167780903 1.7778094485 0.341067577278 9.25968660401 17.1786719607 -2.97279757445 -34.2731755004 -0.0332980860084 0.583527393343 8.66649918875 -0.141723397049 -0.385184249375 -3.00084275807 0.0331750859075 79.0712285494 -20.5247150408 6.66642215117 8.45358597062 41.7793758133 6.30747436594 -72.8488784042 -10.1817314061 0.77826046217 -3.95666540694 36.0459510994 -14.9245319497 -0.660238688655 2.94285210414 -4.14067625271 -0.223333578842 10.6511899446 -8.21139941548 3.31621137507 -36.5652435518 -0.00972658875073 
1.96099052454 0.980478312707 0.0353475308198 -4.19921097389 -0.796269376495 -91.3096707873 -1.07726757446 2.08012578743 1.77695652862 0.338558576655 9.28201107731 17.1674089788 -3.02000549412 -34.2931674641 -0.0396982834207 0.64655237694 8.8231743368 -0.151234462149 -0.509004266526 -3.21167511638 0.0446411859353 79.0688379832 -20.3759705961 6.52123111244 8.47458538722 41.5102629449 6.37380745562 -72.7705429646 -10.1248461756 0.846156384501 -3.91016932105 36.012899814 -14.9884522751 -0.670601419647 2.93745561437 -4.14911836652 -0.215168808061 10.6516151238 -8.21622750545 3.29023573877 -36.6028881394 -0.0160923475688 
